<?xml version="1.0" encoding="UTF-8"?>
<svg id="Layer_2" data-name="Layer 2" xmlns="http://www.w3.org/2000/svg" viewBox="0 0 200.78 82.58">
  <defs>
    <style>
      .cls-1 {
        fill: #ed1f24;
      }
    </style>
  </defs>
  <g id="Layer_1-2" data-name="Layer 1">
    <path class="cls-1" d="m68.43,33.15h-2.74c0-7.49-2.33-14.42-6.98-20.79-4.65-6.37-11.31-9.55-19.98-9.55-4.84,0-8.83,2.9-11.98,8.71-3.15,5.81-4.72,15.73-4.72,29.78s1.57,23.97,4.72,29.78c3.15,5.81,8.07,8.71,14.78,8.71s12.36-2.15,16.97-6.46c4.61-4.31,7.46-10.39,8.55-18.26h2.74c-1.28,9.27-4.45,16.18-9.51,20.72-5.06,4.54-11.11,6.81-18.13,6.81-13.6,0-24.02-3.35-31.27-10.04C3.63,65.85,0,55.36,0,41.08S3.54,16.39,10.61,9.83C17.68,3.28,27.05,0,38.73,0c6.3,0,12.41,1.73,18.34,5.2,1.92,1.22,3.49,1.83,4.72,1.83s2.21-.58,2.94-1.76c.73-1.17,1.1-2.32,1.1-3.44h2.6v31.32Z"/>
    <path class="cls-1" d="m112.91,80.48h-34.22v-2.81h6.84V4.63h-6.84V1.83h34.22v2.81h-6.84v73.03h6.84v2.81Z"/>
    <path class="cls-1" d="m200.78,41.78c0,12.88-3.7,22.78-11.09,29.71-7.39,6.93-17.02,10.39-28.88,10.39s-21.44-3.44-28.74-10.32c-7.3-6.88-10.95-16.76-10.95-29.63s3.65-23.06,10.95-30.55S149.06.14,161.15.14s21.71,3.72,28.88,11.17c7.16,7.44,10.74,17.6,10.74,30.48Zm-26.76-28.79c-3.15-6.69-7.48-10.04-13-10.04s-9.88,3.37-13.07,10.11c-3.19,6.74-4.79,16.15-4.79,28.23s1.53,21.4,4.58,27.95c3.06,6.56,7.46,9.83,13.21,9.83,11.86,0,17.79-12.69,17.79-38.06,0-11.98-1.57-21.32-4.72-28.02Z"/>
  </g>
</svg>