<?xml version="1.0" encoding="UTF-8"?>
<svg id="Layer_2" data-name="Layer 2" xmlns="http://www.w3.org/2000/svg" viewBox="0 0 522.21 70.56">
  <defs>
    <style>
      .cls-1 {
        fill: #515251;
      }

      .cls-2 {
        fill: #ed1f24;
      }
    </style>
  </defs>
  <g id="Layer_1-2" data-name="Layer 1">
    <path class="cls-2" d="m58.47,28.32h-2.34c0-6.4-1.99-12.32-5.96-17.76-3.98-5.44-9.67-8.16-17.07-8.16-4.13,0-7.54,2.48-10.23,7.44-2.69,4.96-4.03,13.44-4.03,25.44s1.35,20.48,4.03,25.44c2.69,4.96,6.9,7.44,12.63,7.44s10.56-1.84,14.5-5.52c3.94-3.68,6.37-8.88,7.31-15.6h2.34c-1.09,7.92-3.8,13.82-8.13,17.7-4.33,3.88-9.49,5.82-15.49,5.82-11.62,0-20.52-2.86-26.72-8.58C3.1,56.26,0,47.3,0,35.1S3.02,14,9.06,8.4C15.1,2.8,23.11,0,33.09,0c5.38,0,10.6,1.48,15.67,4.44,1.64,1.04,2.98,1.56,4.03,1.56s1.89-.5,2.51-1.5c.62-1,.94-1.98.94-2.94h2.22v26.76Z"/>
    <path class="cls-2" d="m96.47,68.76h-29.23v-2.4h5.85V3.96h-5.85V1.56h29.23v2.4h-5.85v62.4h5.85v2.4Z"/>
    <path class="cls-2" d="m171.54,35.7c0,11-3.16,19.46-9.47,25.38-6.31,5.92-14.54,8.88-24.67,8.88s-18.32-2.94-24.56-8.82c-6.24-5.88-9.35-14.32-9.35-25.32s3.12-19.7,9.35-26.1S127.36.12,137.69.12s18.55,3.18,24.67,9.54c6.12,6.36,9.18,15.04,9.18,26.04Zm-22.86-24.6c-2.69-5.72-6.39-8.58-11.11-8.58s-8.44,2.88-11.17,8.64c-2.73,5.76-4.09,13.8-4.09,24.12s1.3,18.28,3.92,23.88c2.61,5.6,6.37,8.4,11.28,8.4,10.13,0,15.2-10.84,15.2-32.52,0-10.24-1.34-18.22-4.03-23.94Z"/>
    <path class="cls-1" d="m258.38,1.56v2.4h-7.95l-24.91,64.8h-3.04L193.13,3.96h-5.61V1.56h33.09v2.4h-5.73l17.07,40.2,15.44-40.2h-9.35V1.56h20.35Z"/>
    <path class="cls-1" d="m293.46,68.76h-29.23v-2.4h5.85V3.96h-5.85V1.56h29.23v2.4h-5.85v62.4h5.85v2.4Z"/>
    <path class="cls-1" d="m337.9,66.36c11.69,0,17.54-6.8,17.54-20.4h2.34v22.8h-54.96v-2.4h5.85V3.96h-5.85V1.56h53.79v20.4h-2.34c0-7.12-1.38-11.9-4.15-14.34-2.77-2.44-7.23-3.66-13.39-3.66h-10.52v28.8h4.68c5.61,0,9.16-.72,10.64-2.16,1.48-1.44,2.22-4.32,2.22-8.64h2.34v24h-2.34c0-4.48-.74-7.4-2.22-8.76-1.48-1.36-5.03-2.04-10.64-2.04h-4.68v31.2h11.69Z"/>
    <path class="cls-1" d="m363.04,3.96V1.56h34.26v2.4h-5.73l16.02,37.08,7.48-19.08-7.83-18h-4.44V1.56h32.04v2.4h-5.5l15.67,36.6,12.39-36.6h-9.35V1.56h20.11v2.4h-7.95l-21.87,64.8h-2.81l.47-1.32-.58,1.32-18.83-43.44-16.96,43.44h-2.81L368.65,3.96h-5.61Z"/>
    <path class="cls-1" d="m470.89,68.76h-2.34v-27.96h2.34c0,7.52,2.63,13.92,7.89,19.2,5.26,5.28,11.67,7.92,19.24,7.92,3.12,0,5.63-.94,7.54-2.82,1.91-1.88,2.87-4.38,2.87-7.5,0-3.52-2.22-6.52-6.67-9-2.42-1.28-6.59-3.3-12.51-6.06-5.93-2.76-10.1-5.1-12.51-7.02-4.83-3.84-6.96-8.92-6.37-15.24.59-6.32,2.9-11.22,6.96-14.7,4.05-3.48,8.63-5.22,13.74-5.22s9.71.7,13.8,2.1c4.09,1.4,6.41,2.1,6.96,2.1,1.56,0,2.34-1.4,2.34-4.2h2.34v21.96h-2.34c0-5.76-2.07-10.46-6.2-14.1-4.13-3.64-9.43-5.46-15.9-5.46-2.89,0-5.15.86-6.78,2.58-1.64,1.72-2.46,3.62-2.46,5.7s.27,3.68.82,4.8c.54,1.12,1.5,2.14,2.87,3.06,1.36.92,2.55,1.66,3.57,2.22,1.01.56,2.63,1.32,4.85,2.28,2.22.96,3.76,1.64,4.62,2.04,4.29,2,6.82,3.18,7.6,3.54.78.36,1.91.94,3.39,1.74,1.48.8,2.59,1.52,3.33,2.16.74.64,1.7,1.44,2.86,2.4,1.17.96,2.03,1.94,2.57,2.94.54,1,1.09,2.14,1.64,3.42,1.09,2.56,1.48,5.56,1.17,9-.63,6.48-2.98,11.42-7.07,14.82-4.09,3.4-9.61,5.1-16.55,5.1-6.24,0-12.43-1.64-18.59-4.92-2.1-1.12-3.66-1.68-4.68-1.68-2.89,0-4.33,1.6-4.33,4.8Z"/>
  </g>
</svg>